<svg width="60" height="60" viewBox="0 0 60 60" fill="none" xmlns="http://www.w3.org/2000/svg">
<path d="M59.4205 35.8873C60.1932 32.0005 60.1932 27.9995 59.4205 24.1127L51.6515 23.8787C51.1742 22.1856 50.4987 20.5547 49.639 19.0199L54.966 13.363C52.7645 10.0671 49.9349 7.23753 46.6389 5.03607L40.982 10.3629C39.4474 9.5028 37.8164 8.82729 36.123 8.35051L35.889 0.581611C32.002 -0.193465 28.0003 -0.193874 24.1131 0.580409L23.8791 8.34931C22.1859 8.82661 20.555 9.50209 19.0201 10.3617L13.3632 5.03487C10.0673 7.23633 7.23764 10.0659 5.03615 13.3618L10.3631 19.0187C9.50294 20.5532 8.82742 22.1842 8.35064 23.8775L0.58162 24.1115C-0.193468 27.9985 -0.193877 32.0002 0.580418 35.8873L8.34944 36.1213C8.82674 37.8144 9.50224 39.4453 10.3619 40.9801L5.03494 46.637C7.23644 49.9329 10.0661 52.7625 13.362 54.9639L19.0189 49.6371C20.5535 50.4972 22.1845 51.1727 23.8779 51.6495L24.1119 59.4184C27.9989 60.1935 32.0007 60.1939 35.8878 59.4196L36.1218 51.6507C37.815 51.1734 39.4459 50.4979 40.9808 49.6383L46.6377 54.9651C49.9337 52.7637 52.7633 49.9341 54.9648 46.6382L49.6378 40.9813C50.498 39.4468 51.1735 37.8158 51.6503 36.1225L59.4205 35.8873V35.8873ZM30.0005 41.2501C27.0167 41.2501 24.1551 40.0649 22.0453 37.9551C19.9354 35.8452 18.7501 32.9837 18.7501 30C18.7501 23.7863 23.7867 18.7499 30.0005 18.7499C36.2142 18.7499 41.2508 23.7863 41.2508 30C41.2508 32.9837 40.0655 35.8452 37.9556 37.9551C35.8458 40.0649 32.9842 41.2501 30.0005 41.2501V41.2501Z" fill="#6D6363"/>
</svg>
