<svg width="56" height="56" viewBox="0 0 56 56" fill="none" xmlns="http://www.w3.org/2000/svg">
<g clip-path="url(#clip0_527_118)">
<path d="M52.6108 18.8836H41.9813V17.2419H52.6108V18.8836ZM52.6108 19.9542H41.9813V21.5992H52.6108V19.9542ZM52.6043 12.5072H41.9911V16.1241H52.6043V12.5072ZM56 8.61851V47.3864C55.9984 47.9672 55.5249 48.4407 54.9424 48.4407H39.653C39.0689 48.4407 38.597 47.9672 38.597 47.3847V8.61851C38.597 8.03603 39.0689 7.56093 39.653 7.56093H54.9424C55.5265 7.56093 56 8.03603 56 8.61851ZM53.8865 9.67122H40.7073V46.3288H53.8865V9.67122ZM52.6108 22.6681H41.9813V24.3082H52.6108V22.6681ZM50.8813 34.9003C50.8813 36.791 49.3535 38.3155 47.4693 38.3155C45.582 38.3155 44.0542 36.7894 44.0542 34.9003C44.0542 33.0162 45.5836 31.4868 47.4693 31.4868C49.3535 31.4868 50.8813 33.0178 50.8813 34.9003ZM49.6496 34.9003C49.6496 33.698 48.6734 32.7185 47.4677 32.7185C46.2604 32.7185 45.2842 33.6963 45.2842 34.9003C45.2842 36.1044 46.2604 37.0806 47.4677 37.0806C48.6734 37.0806 49.6496 36.1044 49.6496 34.9003ZM35.6927 14.9982V36.9716C35.6927 38.296 34.627 39.3682 33.3156 39.3682H21.4446C21.4446 39.3682 20.771 44.1648 25.0436 44.1648V46.5647H21.4446H14.2498H10.6507V44.1681C14.7655 44.1681 14.2498 39.3715 14.2498 39.3715H2.38364C1.06735 39.3715 0 38.2993 0 36.9748V14.9982C0 13.6738 1.06735 12.6064 2.38364 12.6064H33.314C34.627 12.6064 35.6927 13.6738 35.6927 14.9982ZM20.0648 36.4363C20.0648 35.3006 19.1439 34.3813 18.0083 34.3813C16.8709 34.3813 15.9484 35.3006 15.9484 36.4363C15.9484 37.572 16.8693 38.4945 18.0083 38.4945C19.1456 38.4945 20.0648 37.572 20.0648 36.4363ZM33.1448 15.1495H2.55122V33.6768H33.1431L33.1448 15.1495ZM18.0294 35.1493C17.3233 35.1493 16.7522 35.722 16.7522 36.4265C16.7522 37.131 17.3249 37.7038 18.0294 37.7038C18.7339 37.7038 19.3066 37.131 19.3066 36.4265C19.3066 35.722 18.7355 35.1493 18.0294 35.1493Z" fill="black"/>
</g>
<defs>
<clipPath id="clip0_527_118">
<rect width="56" height="56" fill="white"/>
</clipPath>
</defs>
</svg>
