<svg width="40" height="40" viewBox="0 0 40 40" fill="none" xmlns="http://www.w3.org/2000/svg">
<path d="M39.6137 23.9249C40.1288 21.3336 40.1288 18.6664 39.6137 16.0751L34.4343 15.9191C34.1161 14.7904 33.6658 13.7031 33.0927 12.6799L36.644 8.90865C35.1763 6.71141 33.2899 4.82502 31.0926 3.35738L27.3213 6.90863C26.2983 6.3352 25.2109 5.88486 24.082 5.56701L23.926 0.387741C21.3347 -0.128977 18.6668 -0.12925 16.0754 0.386939L15.9194 5.56621C14.7906 5.88441 13.7033 6.33473 12.6801 6.90783L8.90879 3.35658C6.71151 4.82422 4.82509 6.7106 3.35743 8.90785L6.90873 12.6791C6.3353 13.7021 5.88495 14.7895 5.56709 15.9183L0.387746 16.0743C-0.128979 18.6656 -0.129252 21.3334 0.386945 23.9249L5.56629 24.0809C5.8845 25.2096 6.33482 26.2969 6.90793 27.3201L3.35663 31.0913C4.82429 33.2886 6.7107 35.175 8.90799 36.6426L12.6793 33.0914C13.7024 33.6648 14.7897 34.1151 15.9186 34.433L16.0746 39.6123C18.6659 40.129 21.3338 40.1292 23.9252 39.6131L24.0812 34.4338C25.21 34.1156 26.2973 33.6653 27.3205 33.0922L31.0918 36.6434C33.2891 35.1758 35.1755 33.2894 36.6432 31.0921L33.0919 27.3209C33.6653 26.2979 34.1157 25.2105 34.4335 24.0817L39.6137 23.9249V23.9249ZM20.0003 27.5001C18.0111 27.5001 16.1034 26.7099 14.6969 25.3034C13.2903 23.8968 12.5001 21.9892 12.5001 20C12.5001 15.8575 15.8578 12.4999 20.0003 12.4999C24.1428 12.4999 27.5005 15.8575 27.5005 20C27.5005 21.9892 26.7103 23.8968 25.3038 25.3034C23.8972 26.7099 21.9895 27.5001 20.0003 27.5001V27.5001Z" fill="#6D6363"/>
</svg>
