<svg width="206" height="206" viewBox="0 0 206 206" fill="none" xmlns="http://www.w3.org/2000/svg">
<rect x="4" y="4" width="200" height="200" fill="#D9D9D9"/>
<path d="M5 20H204" stroke="black" stroke-width="3" stroke-linecap="round"/>
<path d="M4 38H204" stroke="black" stroke-width="3" stroke-linecap="round"/>
<path d="M4 55H204" stroke="black" stroke-width="3" stroke-linecap="round"/>
<path d="M4 72H204" stroke="black" stroke-width="3" stroke-linecap="round"/>
<path d="M4 89H204" stroke="black" stroke-width="3" stroke-linecap="round"/>
<path d="M2 105H204" stroke="black" stroke-width="3" stroke-linecap="round"/>
<path d="M3 122H204" stroke="black" stroke-width="3" stroke-linecap="round"/>
<path d="M4 141H204" stroke="black" stroke-width="3" stroke-linecap="round"/>
<path d="M2 157H204" stroke="black" stroke-width="3" stroke-linecap="round"/>
<path d="M3 174H204" stroke="black" stroke-width="3" stroke-linecap="round"/>
<path d="M3 190H204" stroke="black" stroke-width="3" stroke-linecap="round"/>
<path d="M17 3V204" stroke="black" stroke-width="3" stroke-linecap="round"/>
<path d="M36 3V204" stroke="black" stroke-width="3" stroke-linecap="round"/>
<path d="M57 3V204" stroke="black" stroke-width="3" stroke-linecap="round"/>
<path d="M17 3V204" stroke="black" stroke-width="3" stroke-linecap="round"/>
<path d="M137 2V203" stroke="black" stroke-width="3" stroke-linecap="round"/>
<path d="M156 2V203" stroke="black" stroke-width="3" stroke-linecap="round"/>
<path d="M177 2V203" stroke="black" stroke-width="3" stroke-linecap="round"/>
<path d="M195 2V203" stroke="black" stroke-width="3" stroke-linecap="round"/>
<path d="M137 2V203" stroke="black" stroke-width="3" stroke-linecap="round"/>
<path d="M76 3V204" stroke="black" stroke-width="3" stroke-linecap="round"/>
<path d="M95 3V204" stroke="black" stroke-width="3" stroke-linecap="round"/>
<path d="M116 3V204" stroke="black" stroke-width="3" stroke-linecap="round"/>
<path d="M76 3V204" stroke="black" stroke-width="3" stroke-linecap="round"/>
</svg>
