<svg width="55" height="45" viewBox="0 0 55 45" fill="none" xmlns="http://www.w3.org/2000/svg">
<g clip-path="url(#clip0_531_255)">
<path d="M21.311 8.00004H8.68876C7.48076 8.00004 6.50562 8.97956 6.50562 10.1854V35.8169C6.50562 37.0216 7.48076 38 8.68876 38H21.311C22.5168 38 23.4942 37.0216 23.4942 35.8169V10.1854C23.4942 8.97956 22.5168 8.00004 21.311 8.00004ZM11.8853 9.32721H18.1166C18.2741 9.32721 18.402 9.56225 18.402 9.85304C18.402 10.1438 18.2741 10.38 18.1166 10.38H11.8853C11.7268 10.38 11.6011 10.1438 11.6011 9.85304C11.6011 9.56225 11.7268 9.32721 11.8853 9.32721ZM15.001 35.8431C14.2325 35.8431 13.6071 35.2178 13.6071 34.4482C13.6071 33.6786 14.2325 33.0554 15.001 33.0554C15.7673 33.0554 16.3926 33.6786 16.3926 34.4482C16.3926 35.2178 15.7673 35.8431 15.001 35.8431ZM21.8587 31.0669H8.14216V11.6875H21.8587V31.0669Z" fill="black"/>
</g>
<g clip-path="url(#clip1_531_255)">
<path d="M55 36.3112V23.6889C55 22.4809 54.0205 21.5058 52.8147 21.5058H27.1832C25.9784 21.5058 25 22.4809 25 23.6889V36.3112C25 37.517 25.9784 38.4943 27.1832 38.4943H52.8147C54.0205 38.4943 55 37.517 55 36.3112ZM53.6728 26.8855V33.1168C53.6728 33.2742 53.4378 33.4021 53.147 33.4021C52.8562 33.4021 52.6201 33.2742 52.6201 33.1168V26.8855C52.6201 26.727 52.8562 26.6012 53.147 26.6012C53.4378 26.6012 53.6728 26.727 53.6728 26.8855ZM27.1569 30.0011C27.1569 29.2326 27.7822 28.6073 28.5519 28.6073C29.3215 28.6073 29.9446 29.2326 29.9446 30.0011C29.9446 30.7675 29.3215 31.3928 28.5519 31.3928C27.7822 31.3928 27.1569 30.7675 27.1569 30.0011ZM31.9332 36.8589V23.1423H51.3126V36.8589H31.9332Z" fill="black"/>
</g>
<g clip-path="url(#clip2_531_255)">
<path d="M44.4082 14.1957L47.1901 11.8614L46.4684 20.1106L38.2191 19.3889L41.0353 17.0259C36.2021 12.0751 29.8669 10.1148 25.4258 12.0719C25.8374 11.4565 26.3311 10.8997 26.9085 10.4152C31.2685 6.75674 38.837 8.48842 44.4082 14.1957Z" fill="black"/>
</g>
<defs>
<clipPath id="clip0_531_255">
<rect width="30" height="30" fill="white" transform="translate(0 8.00004)"/>
</clipPath>
<clipPath id="clip1_531_255">
<rect width="30" height="30" fill="white" transform="translate(55 15) rotate(90)"/>
</clipPath>
<clipPath id="clip2_531_255">
<rect width="20" height="20" fill="white" transform="matrix(0.642788 0.766044 0.766044 -0.642788 24 12.8558)"/>
</clipPath>
</defs>
</svg>
