<svg width="67" height="60" viewBox="0 0 67 60" fill="none" xmlns="http://www.w3.org/2000/svg">
<g clip-path="url(#clip0_528_61)">
<path d="M25.5734 16H10.4267C8.97706 16 7.80688 17.1755 7.80688 18.6224V49.3803C7.80688 50.8259 8.97706 52 10.4267 52H25.5734C27.0204 52 28.1932 50.8259 28.1932 49.3803V18.6224C28.1932 17.1755 27.0204 16 25.5734 16ZM14.2625 17.5926H21.7401C21.929 17.5926 22.0825 17.8747 22.0825 18.2236C22.0825 18.5726 21.929 18.856 21.7401 18.856H14.2625C14.0723 18.856 13.9215 18.5726 13.9215 18.2236C13.9215 17.8747 14.0723 17.5926 14.2625 17.5926ZM18.0013 49.4117C17.0791 49.4117 16.3287 48.6614 16.3287 47.7378C16.3287 46.8143 17.0791 46.0665 18.0013 46.0665C18.9209 46.0665 19.6713 46.8143 19.6713 47.7378C19.6713 48.6614 18.9209 49.4117 18.0013 49.4117ZM26.2306 43.6802H9.77074V20.4249H26.2306V43.6802Z" fill="white"/>
</g>
<path d="M67 49.5734V34.4267C67 32.9771 65.8246 31.8069 64.3776 31.8069L33.6198 31.8069C32.1741 31.8069 31 32.9771 31 34.4267V49.5734C31 51.0204 32.1741 52.1932 33.6198 52.1932H64.3776C65.8246 52.1932 67 51.0204 67 49.5734ZM65.4074 38.2626V45.7402C65.4074 45.9291 65.1254 46.0825 64.7764 46.0825C64.4274 46.0825 64.1441 45.9291 64.1441 45.7402V38.2626C64.1441 38.0723 64.4274 37.9215 64.7764 37.9215C65.1254 37.9215 65.4074 38.0723 65.4074 38.2626ZM33.5883 42.0014C33.5883 41.0791 34.3387 40.3287 35.2622 40.3287C36.1858 40.3287 36.9335 41.0791 36.9335 42.0014C36.9335 42.921 36.1858 43.6714 35.2622 43.6714C34.3387 43.6714 33.5883 42.921 33.5883 42.0014ZM39.3198 50.2306V33.7708H62.5751V50.2306H39.3198Z" fill="white"/>
<g clip-path="url(#clip1_528_61)">
<path d="M49.4474 14.5562L52.0153 11.9883L52.0153 20.2691L43.7345 20.2691L46.334 17.6696C41.0877 13.1588 34.6058 11.7582 30.3522 14.0949C30.7085 13.446 31.1518 12.8483 31.6848 12.3153C35.7093 8.29074 43.4 9.35619 49.4474 14.5562Z" fill="white"/>
</g>
<defs>
<clipPath id="clip0_528_61">
<rect width="36" height="36" fill="white" transform="translate(0 16)"/>
</clipPath>
<clipPath id="clip1_528_61">
<rect width="20" height="20" fill="white" transform="matrix(0.707107 0.707107 0.707107 -0.707107 29 15)"/>
</clipPath>
</defs>
</svg>
