<svg width="56" height="49" viewBox="0 0 56 49" fill="none" xmlns="http://www.w3.org/2000/svg">
<g clip-path="url(#clip0_531_260)">
<path fill-rule="evenodd" clip-rule="evenodd" d="M23.3333 7.08698V47.3219C23.3333 48.0144 22.9043 48.5816 22.3805 48.5816H0.952811C0.429028 48.5816 0 48.0144 0 47.3219V7.08698C0 6.39453 0.429028 5.82735 0.952811 5.82735H22.3779C22.9043 5.82735 23.3333 6.39453 23.3333 7.08698ZM11.6654 44.0546C12.2681 44.0546 12.7577 44.7018 12.7577 45.4986C12.7577 46.2955 12.2681 46.9427 11.6654 46.9427C11.0626 46.9427 10.573 46.2955 10.573 45.4986C10.5757 44.7018 11.0626 44.0546 11.6654 44.0546ZM22.041 8.07519V42.4365H1.42658V8.07519H22.041Z" fill="black"/>
</g>
<g clip-path="url(#clip1_531_260)">
<path fill-rule="evenodd" clip-rule="evenodd" d="M55.0868 49H25.9158C25.4137 49 25.0025 48.5403 25.0025 47.9791V25.0209C25.0025 24.4597 25.4137 24 25.9158 24L55.0868 24C55.5888 24 56 24.4597 56 25.0209V47.9763C56 48.5403 55.5888 49 55.0868 49ZM28.2847 36.4986C28.2847 37.1444 27.8154 37.6689 27.2377 37.6689C26.66 37.6689 26.1908 37.1444 26.1908 36.4986C26.1908 35.8528 26.66 35.3283 27.2377 35.3283C27.8154 35.3311 28.2847 35.8528 28.2847 36.4986ZM54.3703 47.6153H29.4578V25.5285L54.3703 25.5285V47.6153Z" fill="black"/>
</g>
<g clip-path="url(#clip2_531_260)">
<path d="M40.873 15.1744L43.0367 12.6791L42.4754 21.4971L36.0593 20.7256L38.2496 18.1997C34.4905 12.9076 29.5631 10.8122 26.109 12.9042C26.429 12.2464 26.813 11.6512 27.2622 11.1332C30.6532 7.22257 36.5399 9.07363 40.873 15.1744Z" fill="black"/>
</g>
<defs>
<clipPath id="clip0_531_260">
<rect width="23.3333" height="42.7577" fill="white" transform="translate(0 5.82735)"/>
</clipPath>
<clipPath id="clip1_531_260">
<rect width="25" height="31" fill="white" transform="translate(56 24) rotate(90)"/>
</clipPath>
<clipPath id="clip2_531_260">
<rect width="19.1883" height="18.189" fill="white" transform="matrix(0.521096 0.853498 0.655133 -0.755513 25 13.7421)"/>
</clipPath>
</defs>
</svg>
