<svg width="65" height="52" viewBox="0 0 65 52" fill="none" xmlns="http://www.w3.org/2000/svg">
<g clip-path="url(#clip0_528_62)">
<path fill-rule="evenodd" clip-rule="evenodd" d="M26 17.0606V50.9366C26 51.5196 25.5219 51.9971 24.9383 51.9971H1.0617C0.47806 51.9971 0 51.5196 0 50.9366V17.0606C0 16.4776 0.47806 16 1.0617 16H24.9354C25.5219 16 26 16.4776 26 17.0606ZM12.9985 48.1856C13.6702 48.1856 14.2157 48.7305 14.2157 49.4014C14.2157 50.0723 13.6702 50.6172 12.9985 50.6172C12.3269 50.6172 11.7814 50.0723 11.7814 49.4014C11.7843 48.7305 12.3269 48.1856 12.9985 48.1856ZM24.56 17.8926V46.8233H1.58962V17.8926H24.56Z" fill="white"/>
</g>
<g clip-path="url(#clip1_528_62)">
<path fill-rule="evenodd" clip-rule="evenodd" d="M63.9395 52H30.0635C29.4805 52 29.0029 51.522 29.0029 50.9383V27.0617C29.0029 26.4781 29.4805 26 30.0635 26L63.9395 26C64.5225 26 65 26.4781 65 27.0617V50.9354C65 51.522 64.5225 52 63.9395 52ZM32.8145 38.9986C32.8145 39.6702 32.2695 40.2157 31.5986 40.2157C30.9277 40.2157 30.3828 39.6702 30.3828 38.9986C30.3828 38.3269 30.9277 37.7814 31.5986 37.7814C32.2695 37.7844 32.8145 38.3269 32.8145 38.9986ZM63.1074 50.56H34.1768V27.5897L63.1074 27.5897V50.56Z" fill="white"/>
</g>
<g clip-path="url(#clip2_528_62)">
<path d="M47.4474 14.5562L50.0153 11.9883L50.0153 20.2691L41.7345 20.2691L44.334 17.6696C39.0877 13.1588 32.6058 11.7582 28.3522 14.0949C28.7085 13.446 29.1518 12.8483 29.6848 12.3153C33.7093 8.29074 41.4 9.35619 47.4474 14.5562Z" fill="white"/>
</g>
<defs>
<clipPath id="clip0_528_62">
<rect width="26" height="36" fill="white" transform="translate(0 16)"/>
</clipPath>
<clipPath id="clip1_528_62">
<rect width="26" height="36" fill="white" transform="translate(65 26) rotate(90)"/>
</clipPath>
<clipPath id="clip2_528_62">
<rect width="20" height="20" fill="white" transform="matrix(0.707107 0.707107 0.707107 -0.707107 27 15)"/>
</clipPath>
</defs>
</svg>
